<svg width="72" height="72" viewBox="0 0 81 72" fill="none" xmlns="http://www.w3.org/2000/svg">
<g clip-path="url(#clip0_466_126)">
<path d="M61.1577 51.8062C60.476 51.8062 59.9234 52.3644 59.9234 53.0531C59.9234 53.7417 60.476 54.3 61.1577 54.3H65.3661C66.0478 54.3 66.6004 53.7417 66.6004 53.0531V6.64691C66.6004 5.95826 66.0478 5.4 65.3661 5.4H6.63472C5.95302 5.4 5.40039 5.95826 5.40039 6.64691V53.0531C5.40039 53.7417 5.95302 54.3 6.63472 54.3H42.992C43.6737 54.3 44.2263 53.7417 44.2263 53.0531C44.2263 52.3644 43.6737 51.8062 42.992 51.8062H7.86906V7.89382H64.1317V51.8062H61.1577Z" fill="black"/>
<path d="M70.7945 0H1.20549C0.539714 0 0 0.539714 0 1.20549V57.7467C0 58.4124 0.539714 58.9521 1.20549 58.9521H42.8279C43.4937 58.9521 44.0334 58.4124 44.0334 57.7467C44.0334 57.0809 43.4937 56.5412 42.8279 56.5412H2.41098V2.41098H69.589V56.5412H60.5692C59.9035 56.5412 59.3637 57.0809 59.3637 57.7467C59.3637 58.4124 59.9035 58.9521 60.5692 58.9521H70.7945C71.4603 58.9521 72 58.4124 72 57.7467V1.20549C72 0.539714 71.4603 0 70.7945 0Z" fill="black"/>
<path d="M14.4004 29.5267H21.6039C22.5351 29.5267 23.343 30.1694 23.5526 31.0767L25.3255 38.7534C25.803 40.8208 28.7474 40.8197 29.2233 38.7519L33.9874 18.0514C34.1964 17.1434 35.0047 16.5 35.9364 16.5H57.9004" stroke="#7BBAF4" stroke-width="3" stroke-miterlimit="10" stroke-linecap="round" stroke-linejoin="round"/>
<path d="M40.8418 23.3235L49.3712 36.1176" stroke="#7BBAF4" stroke-width="3" stroke-miterlimit="10" stroke-linecap="round"/>
<path d="M49.3712 23.3235L40.8418 36.1176" stroke="#7BBAF4" stroke-width="3" stroke-miterlimit="10" stroke-linecap="round"/>
<path d="M55.7532 48.0967V69.0958C55.7532 69.8687 55.122 70.5 54.3488 70.5H49.0479C48.2747 70.5 47.6436 69.8687 47.6436 69.0958V48.0967C47.6436 46.3867 49.037 44.9933 50.747 44.9933H52.6501C54.3597 44.9933 55.7532 46.3867 55.7532 48.0967Z" stroke="#7BBAF4" stroke-width="3"/>
</g>
<defs>
<clipPath id="clip0_466_126">
<rect width="72" height="72" fill="white"/>
</clipPath>
</defs>
</svg>
