<svg width="76" height="76" viewBox="0 0 76 76" fill="none" xmlns="http://www.w3.org/2000/svg">
<g clip-path="url(#clip0_466_134)">
<path d="M30.6325 40.3908L27.2285 48.8565L35.6813 45.4208L35.7962 45.3056L30.7738 40.2492L30.6325 40.3908Z" fill="white"/>
<path d="M73.7673 7.19226C75.1567 5.79813 75.1525 3.54188 73.7578 2.1528C72.3643 0.763418 70.1068 0.767574 68.7185 2.1623L67.5352 3.3501L72.5791 8.38496L73.7673 7.19226Z" fill="#EFF2FA"/>
<path d="M67.535 3.35024L30.7744 40.2492L35.7968 45.3056L72.5787 8.38496L67.535 3.35024Z" fill="#FFD782"/>
<path d="M27.3584 48.804L35.6815 45.4208L35.7963 45.3056L33.3348 42.8274L27.3584 48.804Z" fill="white"/>
<path d="M30.7738 40.2492L30.6325 40.3908L27.2285 48.8565L27.3583 48.804L33.3347 42.8274L30.7738 40.2492Z" fill="#D7DEED"/>
<path d="M70.1758 5.98664L72.5784 8.38495L73.7668 7.19211C75.1137 5.84058 75.1468 3.68126 73.8772 2.28505L70.1758 5.98664Z" fill="#EFF2FA"/>
<path d="M73.8778 2.2852C73.8377 2.24111 73.8004 2.19554 73.7578 2.15309C72.3643 0.763708 70.1068 0.767864 68.7185 2.16259L67.5352 3.35039L70.1763 5.98679L73.8778 2.2852Z" fill="#D7DEED"/>
<path d="M70.176 5.98665L67.535 3.35024L30.7744 40.2492L33.3353 42.8274L70.176 5.98665Z" fill="#DCEEFF"/>
<path d="M33.335 42.8274L35.7965 45.3056L72.5784 8.38495L70.1757 5.98664L33.335 42.8274Z" fill="#7BBAF4"/>
<path d="M66.851 18.9145H66.8488C66.2338 18.9157 65.7359 19.4152 65.7371 20.0303L65.8085 70.0433C65.8103 71.0098 65.4322 71.9226 64.7438 72.6137C64.0553 73.3048 63.1439 73.6863 62.1774 73.6881L6.03705 73.7728C6.03467 73.7728 6.03244 73.7728 6.03007 73.7728C5.06626 73.7728 4.15604 73.3949 3.4667 72.7081C2.77557 72.0196 2.39409 71.1082 2.3923 70.1418L2.30755 25.0014C2.30576 24.0349 2.68384 23.1222 3.37229 22.431C4.06075 21.7399 4.97215 21.3584 5.93863 21.3566L43.9516 21.2852C44.5666 21.284 45.0645 20.7846 45.0633 20.1694C45.0621 19.5552 44.5638 19.0578 43.9495 19.0578H43.9473L5.93433 19.1292C4.37276 19.1321 2.90263 19.7464 1.7944 20.8589C0.68616 21.9715 0.0771202 23.4441 0.0800889 25.0054L0.164847 70.1458C0.167816 71.7073 0.782051 73.1775 1.89459 74.2857C3.00461 75.3916 4.47266 76 6.02992 75.9998C6.03363 75.9998 6.03749 75.9998 6.0412 75.9998L62.1816 75.9151C63.7431 75.9121 65.2133 75.2979 66.3217 74.1853C67.43 73.0728 68.0388 71.6002 68.0358 70.0389L67.9644 20.0259C67.9634 19.4118 67.4651 18.9145 66.851 18.9145Z" fill="black"/>
<path d="M74.5437 1.36429C73.6614 0.484501 72.4889 0 71.2425 0C69.9894 0 68.8126 0.488954 67.9292 1.37646L29.8441 39.605C29.7387 39.7108 29.6556 39.837 29.5996 39.9756L26.1956 48.4412C26.0289 48.8559 26.1263 49.33 26.4429 49.6456C26.6558 49.8576 26.9399 49.9704 27.2292 49.9704C27.3702 49.9704 27.5127 49.9435 27.6484 49.8885L36.101 46.4527C36.2394 46.3965 36.3652 46.313 36.4706 46.207L74.5556 7.97838C75.4376 7.0934 75.9221 5.91792 75.9198 4.66837C75.9175 3.41912 75.4287 2.24557 74.5437 1.36429ZM35.8224 43.7017L32.3515 40.2439L67.5354 4.92754L71.0063 8.3854L35.8224 43.7017ZM31.1211 42.1621L33.9086 44.9392L29.2414 46.8363L31.1211 42.1621ZM72.978 6.40628L72.5783 6.80751L69.1074 3.34965L69.5074 2.94812C69.9701 2.48336 70.5862 2.22731 71.2425 2.22731C71.8952 2.22731 72.5091 2.48099 72.9716 2.94219C73.4354 3.40383 73.6914 4.01851 73.6926 4.67282C73.6938 5.32699 73.44 5.94271 72.978 6.40628Z" fill="black"/>
<path d="M35.5784 29.6905C35.5773 29.0761 35.0789 28.5789 34.4647 28.5789C34.464 28.5789 34.4632 28.5789 34.4625 28.5789L10.7044 28.6236C10.0894 28.6247 9.59159 29.1242 9.59278 29.7394C9.59396 30.3537 10.0923 30.851 10.7065 30.851C10.7072 30.851 10.708 30.851 10.7087 30.851L34.4668 30.8063C35.0818 30.8051 35.5796 30.3055 35.5784 29.6905Z" fill="black"/>
<path d="M29.6497 35.6413C29.6486 35.027 29.1503 34.5296 28.536 34.5296C28.5353 34.5296 28.5345 34.5296 28.5338 34.5296L10.7152 34.5631C10.1002 34.5643 9.60233 35.0638 9.60352 35.679C9.60471 36.2932 10.103 36.7906 10.7172 36.7906C10.718 36.7906 10.7187 36.7906 10.7195 36.7906L28.5381 36.7571C29.1534 36.7557 29.6509 36.2562 29.6497 35.6413Z" fill="black"/>
<path d="M24.9831 40.4759C24.9823 40.4759 24.9816 40.4759 24.9808 40.4759L10.7259 40.5027C10.1109 40.5039 9.61307 41.0034 9.61426 41.6185C9.61545 42.2328 10.1138 42.7302 10.728 42.7302C10.7287 42.7302 10.7295 42.7302 10.7302 42.7302L24.9851 42.7033C25.6001 42.7021 26.098 42.2026 26.0968 41.5875C26.0956 40.9731 25.5972 40.4759 24.9831 40.4759Z" fill="black"/>
<path d="M57.3688 46.42H57.3666L41.1117 46.4469C40.4967 46.4481 39.9988 46.9476 40 47.5627C40.0012 48.1769 40.4995 48.6743 41.1137 48.6743H41.116L57.3709 48.6475C57.9859 48.6463 58.4837 48.1468 58.4825 47.5317C58.4813 46.9173 57.9829 46.42 57.3688 46.42Z" fill="black"/>
<path d="M10.7419 48.6693L22.621 48.6471C23.2359 48.6459 23.7338 48.1464 23.7326 47.5313C23.7314 46.9169 23.2331 46.4196 22.6189 46.4196C22.6181 46.4196 22.6174 46.4196 22.6167 46.4196L10.7376 46.4419C10.1227 46.4431 9.62479 46.9426 9.62598 47.5577C9.62717 48.1721 10.1255 48.6693 10.7397 48.6693C10.7406 48.6693 10.7413 48.6693 10.7419 48.6693Z" fill="black"/>
<path d="M46.116 42.7297L57.995 42.7075C58.61 42.7063 59.1078 42.2068 59.1066 41.5916C59.1055 40.9773 58.6071 40.48 57.9929 40.48C57.9922 40.48 57.9914 40.48 57.9907 40.48L46.1117 40.5023C45.4967 40.5034 44.9988 41.0029 45 41.6181C45.0012 42.2325 45.4995 42.7297 46.1137 42.7297C46.1146 42.7297 46.1154 42.7297 46.116 42.7297Z" fill="black"/>
<path d="M49.9424 35.6569C49.9436 36.2713 50.4419 36.7686 51.0561 36.7686H51.0583L57.9979 36.7575C58.6129 36.7563 59.1108 36.2568 59.1096 35.6417C59.1084 35.0273 58.6101 34.53 57.9959 34.53H57.9936L51.054 34.5411C50.4388 34.5422 49.9412 35.0418 49.9424 35.6569Z" fill="black"/>
<path d="M58.5755 30.4807C58.7833 30.2744 58.9022 29.9878 58.9022 29.6937C58.9022 29.4012 58.7835 29.1132 58.5755 28.9067C58.3677 28.6989 58.0811 28.58 57.7885 28.58C57.4944 28.58 57.208 28.6988 57 28.9067C56.7937 29.1132 56.6748 29.4012 56.6748 29.6937C56.6748 29.9878 56.7935 30.2743 57 30.4807C57.2078 30.6886 57.4944 30.8075 57.7885 30.8075C58.0811 30.8075 58.3677 30.6886 58.5755 30.4807Z" fill="black"/>
<path d="M9.63672 53.4973C9.63791 54.1115 10.1362 54.6089 10.7504 54.6089H10.7527L57.3899 54.542C58.0049 54.5408 58.5028 54.0413 58.5016 53.4262C58.5004 52.8119 58.0021 52.3145 57.3878 52.3145H57.3856L10.7484 52.3815C10.1332 52.3828 9.63568 52.8823 9.63672 53.4973Z" fill="black"/>
<path d="M57.3994 58.2541H57.3972L10.7601 58.3212C10.1451 58.3224 9.64725 58.8219 9.64844 59.437C9.64963 60.0512 10.1479 60.5487 10.7622 60.5487H10.7644L57.4016 60.4817C58.0166 60.4805 58.5145 59.981 58.5133 59.3659C58.5118 58.7515 58.0135 58.2541 57.3994 58.2541Z" fill="black"/>
<path d="M57.4081 64.1937L10.7708 64.2606C10.1559 64.2618 9.65799 64.7613 9.65918 65.3765C9.66037 65.9907 10.1587 66.4881 10.7729 66.4881H10.7751L57.4124 66.4212C58.0274 66.42 58.5252 65.9205 58.524 65.3054C58.5228 64.6911 58.0245 64.1937 57.4103 64.1937H57.4081Z" fill="black"/>
</g>
<defs>
<clipPath id="clip0_466_134">
<rect width="76" height="100" fill="white"/>
</clipPath>
</defs>
</svg>
