<svg width="1920" height="363" viewBox="0 0 1920 363" fill="none" xmlns="http://www.w3.org/2000/svg">
<g clip-path="url(#clip0_1030_7)">
<rect width="1920" height="363" fill="white"/>
<path d="M0 0H1920V363H0V0Z" fill="#006CDC"/>
<path d="M1366.38 1.05236L1363.98 -0.277613C1363.73 0.243998 1363.3 1.06838 1362.75 2.12522C1360.64 6.19308 1357.04 13.1665 1354.88 18.7157C1353.89 16.0912 1353.05 12.9104 1352.24 9.8293C1350.22 2.13869 1348.32 -5.12874 1343.78 -6.61051L1342.92 -3.78269C1346.07 -2.7629 1347.86 4.08131 1349.62 10.6882C1350.81 15.2573 1352.05 19.9693 1353.86 23.2196L1355.39 25.9852L1356.33 22.8414C1357.96 17.3669 1362.82 8.01215 1365.14 3.51189C1365.67 2.43351 1366.12 1.57397 1366.38 1.05236Z" fill="#EBFEC2"/>
<path d="M1369.35 2.37402C1361.5 12.8398 1360.11 22.3337 1365.54 28.4153L1367.53 26.3202C1361.54 19.593 1367.4 9.56025 1371.44 4.17991L1369.35 2.37402Z" fill="#EBFEC2"/>
<path d="M1384.06 23.0685C1383.92 21.8872 1383.59 21.1599 1382.29 20.1122C1384.26 18.0333 1384.56 16.1841 1384.85 14.3727C1385 13.3523 1385.17 12.3912 1385.62 11.2807L1385.94 10.4783C1385.95 10.5187 1385.98 10.5807 1385.99 10.6211L1388.6 9.70289C1388.25 8.47107 1387.51 7.04365 1386.74 5.53538C1386.07 4.23454 1385.37 2.85285 1385.1 1.92294L1384.65 0.327239L1383.23 1.03904C1379.93 2.7043 1375.23 8.1382 1375.03 8.37901L1377.01 10.3607C1378.05 9.14566 1380.83 6.14662 1383.08 4.49578C1383.44 5.28507 1383.86 6.1227 1384.31 7.0034C1384.68 7.736 1385.05 8.46861 1385.38 9.13661L1384.26 9.21868C1378 9.69893 1376.25 18.4035 1374.85 25.4017C1374.1 29.1546 1373.25 33.3935 1371.97 34.3988L1373.55 36.7839C1375.33 35.3721 1376.21 32.2582 1377.02 28.4376C1379.2 28.5165 1382.31 28.0984 1384.16 27.4525L1385.99 26.8203L1384.9 25.1674C1384.18 24.0529 1384.12 23.5405 1384.06 23.0685ZM1382.31 13.0783C1382.26 13.3617 1382.2 13.6425 1382.16 13.926C1381.85 15.8885 1381.63 17.1897 1379.2 19.1029L1379.12 19.1679C1379.9 16.5212 1380.88 14.273 1382.31 13.0783ZM1377.67 25.481C1377.96 24.0366 1378.25 22.5543 1378.59 21.1367L1379.28 21.5687C1381.27 22.8569 1381.3 23.1131 1381.34 23.5258C1381.4 23.9788 1381.49 24.475 1381.71 25.0894C1380.41 25.3367 1378.88 25.4904 1377.67 25.481Z" fill="#EBFEC2"/>
<path d="M1392.29 1.48412C1393.8 5.13479 1396.92 14.4242 1393.56 22.0713L1396.02 23.2959C1399.89 14.5273 1396.46 4.24335 1394.81 0.223529L1392.29 1.48412Z" fill="#EBFEC2"/>
<path d="M1414.66 19.6693L1415.38 22.1949C1416.74 21.7234 1418.34 20.9813 1418.81 19.5255C1418.95 19.0636 1419.09 18.1755 1418.44 17.1875L1417.87 16.3288L1416.93 16.6693C1416.24 16.9118 1415.79 16.8432 1415.18 16.7509C1414.41 16.6348 1413.48 16.4734 1412.16 16.9312L1412.94 19.7561C1413.6 19.5083 1414.05 19.5769 1414.66 19.6693Z" fill="#EBFEC2"/>
<path d="M1413.81 23.3264C1413.42 22.9581 1413.32 21.9575 1413.55 20.5807L1410.85 20.1529C1410.45 22.6824 1410.83 24.5184 1411.98 25.6018C1412.52 26.0883 1413.16 26.399 1413.94 26.5367C1415.16 26.7402 1416.69 26.5083 1418.56 25.8462L1417.78 23.0402C1414.95 23.9835 1414.06 23.5576 1413.81 23.3264Z" fill="#EBFEC2"/>
<path d="M1438.26 6.81646L1436.89 7.90312C1437.54 8.87217 1438.73 9.36182 1440 9.90245C1440.44 10.0844 1440.87 10.2664 1441.28 10.4646C1441.69 10.7573 1442.13 10.9986 1442.6 11.2641L1444.02 8.71495C1443.61 8.4007 1443.15 8.11897 1442.67 7.8724C1441.07 6.70156 1440.27 5.09089 1440.25 3.09708C1440.24 -1.0417 1443.58 -5.71546 1445.8 -7.00199L1444.56 -9.60674C1441.6 -7.91025 1437.5 -2.21131 1437.52 3.18475C1437.55 4.27197 1437.72 5.55562 1438.26 6.81646Z" fill="#EBFEC2"/>
<path d="M1459.86 0.79594L1454.86 -0.0205427C1455.16 -0.439758 1455.47 -0.837434 1455.75 -1.25929C1456.83 -2.79553 1457.78 -4.12085 1458.93 -5.02867L1460.04 -5.90397L1459.25 -7.08837C1457.6 -9.59998 1455.3 -9.60018 1454.21 -9.22409L1454.96 -6.40448C1455.07 -6.44534 1455.55 -6.54683 1456.09 -6.25191C1455.18 -5.28826 1454.41 -4.18748 1453.6 -3.0353C1452.87 -2.02373 1452.12 -0.958131 1451.26 0.0512242L1449.49 2.10245L1459.4 3.70333L1459.86 0.79594Z" fill="#EBFEC2"/>
<path d="M1467.37 30.8347L1467.22 31.7795C1467.9 31.8824 1468.73 31.7366 1469.59 31.5772C1470.06 31.4946 1470.74 31.3465 1471.04 31.3725C1471.35 31.42 1471.68 31.4701 1472 31.5176L1472.46 28.5913L1471.54 28.4515C1471.5 28.4462 1471.45 28.4383 1471.41 28.433C1463.75 27.2318 1455.97 26.4951 1448.43 25.7764C1440.59 25.0128 1433.21 24.3179 1425.97 23.1422L1425.5 26.0685C1432.81 27.2547 1440.25 27.9576 1448.14 28.7101C1454.43 29.3171 1460.94 29.9368 1467.37 30.8347Z" fill="#EBFEC2"/>
<path d="M1436 40.5742C1442.33 41.4185 1444.17 41.601 1444.88 40.0067C1445.04 39.6446 1445.31 38.6994 1444.31 37.6776L1442.47 39.9125C1442.38 39.8022 1442.23 39.4115 1442.37 38.9307C1442.51 38.4689 1442.85 38.2303 1442.98 38.1921C1442.26 38.4104 1438.87 37.9553 1436.42 37.6211C1433.38 37.2188 1430.23 36.798 1428.24 36.9019L1428.3 39.8696C1430.06 39.7691 1433.21 40.2088 1436 40.5742Z" fill="#EBFEC2"/>
<path d="M1439.13 65.3033C1433.51 65.2633 1427.73 65.2373 1422.13 64.5416C1423.6 62.9096 1425.29 61.2715 1427.03 59.5819C1429.34 57.3426 1431.74 55.0005 1434.01 52.3675L1434.55 51.7343L1434.32 50.9257C1433.04 46.3434 1429.71 42.3401 1425.62 40.5007L1424.51 43.2322C1427.6 44.63 1430.26 47.6426 1431.45 51.0516C1429.44 53.3168 1427.31 55.3909 1425.24 57.4161C1422.67 59.9072 1420.27 62.2493 1418.33 64.7382L1416.76 66.7617L1419.14 67.1421C1424.07 67.948 1429.12 68.1545 1434.13 68.2371L1433.91 69.5383C1436.03 69.8791 1437.35 69.9825 1439.87 68.0069L1443.23 65.3647L1439.13 65.3033Z" fill="#EBFEC2"/>
<path d="M1451.56 51.4023C1452.5 50.1337 1453.5 48.8352 1454.52 47.5204L1452.43 45.639C1452.13 46.0367 1451 47.4894 1449.61 49.3666C1448.29 48.006 1446.95 46.6238 1446.13 45.3585L1443.88 47.1254C1444.9 48.6517 1446.4 50.2141 1447.87 51.7118C1445.25 55.3551 1442.42 59.5658 1442.15 61.226L1444.84 61.6727C1445.01 60.7899 1447.02 57.6532 1449.81 53.7854C1450.89 54.9931 1451.84 56.239 1451.74 56.7844C1451.73 56.8221 1451.6 57.0331 1451.04 57.2778L1452.03 60.0183C1453.4 59.4146 1454.2 58.4918 1454.43 57.3282C1454.8 55.3924 1453.45 53.4868 1451.56 51.4023Z" fill="#EBFEC2"/>
<path d="M1454.13 51.2879L1462.93 52.7199L1463.39 49.7936L1460.61 49.3526C1462.84 46.5201 1463.04 43.6324 1463.14 42.391C1463.15 42.2372 1463.15 42.1023 1463.17 41.9889L1460.48 41.5422C1460.46 41.6934 1460.42 41.9201 1460.41 42.2088C1460.31 43.623 1460.09 46.5862 1456.81 49.1633L1454.13 51.2879Z" fill="#EBFEC2"/>
<path d="M1470.73 61.3099C1467.91 61.4626 1464.85 61.6162 1462.16 63.5087C1462.29 63.0064 1462.48 62.4931 1462.75 61.9553L1460.34 60.6226C1459.54 62.2793 1459.3 63.7317 1459.09 65.014C1458.9 66.2422 1458.73 67.2789 1458.13 68.5032L1460.54 69.8358C1462.96 64.9251 1466.01 64.518 1470.82 64.2613L1470.73 61.3099Z" fill="#EBFEC2"/>
<path d="M1437.64 31.8918L1436.54 29.2111C1435.07 29.9554 1433.64 30.454 1432.14 30.9988C1432.1 31.0125 1432.04 31.0234 1432 31.0559C1432.07 30.6402 1431.94 30.1955 1431.48 29.8355C1431.3 29.6932 1430.37 29.0299 1429.43 30.3175C1427.97 32.319 1427.4 32.8903 1427.2 33.0529L1428.54 35.5763C1430.01 34.832 1431.44 34.3334 1432.94 33.8075C1434.44 33.2627 1436.02 32.7095 1437.64 31.8918Z" fill="#EBFEC2"/>
<path d="M1426.59 74.6002L1426.4 71.6519C1425.6 71.7437 1424.8 71.7762 1424.01 71.7735L1422.77 70.8118C1422.58 71.112 1422.34 71.4042 1422.1 71.7153C1419.92 71.5771 1417.73 71.2258 1415.47 70.864L1415.01 73.7902C1416.64 74.0571 1418.31 74.3104 1419.99 74.507C1419.37 75.4966 1418.85 76.6343 1418.63 78.0326L1418.41 79.5065L1425.3 80.6294L1425.76 77.7032L1421.75 77.056C1422.13 76.2237 1422.67 75.4744 1423.26 74.752C1424.35 74.7429 1425.45 74.7175 1426.59 74.6002Z" fill="#EBFEC2"/>
<path d="M1434.54 76.0196L1429 75.1213L1428.54 78.0476L1429.96 78.2828L1429.34 78.7868C1429.93 79.6886 1430.91 80.2437 1431.95 80.402C1432.99 80.5792 1434.1 80.3596 1434.93 79.6741L1434.15 78.4923L1434.54 76.0196Z" fill="#EBFEC2"/>
<path d="M1442.43 74.123C1441.21 73.9194 1440.91 74.9754 1440.49 76.4392C1440.28 77.2197 1440 78.2594 1439.72 79.318C1439.46 80.3037 1438.59 83.5929 1438.48 84.3299L1441.17 84.7577C1441.28 84.0018 1443.15 76.94 1443.43 76.1512L1442.45 75.6932L1443.53 75.8567L1442.43 74.123Z" fill="#EBFEC2"/>
<path d="M940.377 31.1565L938.86 29.7687L938.828 32.3273C938.835 32.4608 938.827 32.6043 938.818 32.7478L938.447 32.9889L938.433 33.9081C938.412 34.8046 938.313 35.8067 938.191 36.907C937.97 38.8986 937.725 41.1546 937.947 43.7413L939.997 43.6795C940.013 42.4279 940.227 40.3028 940.432 38.2659C940.464 38.0241 940.474 37.7698 940.506 37.5281C942 41.3864 943.803 45.0437 945.599 48.5675C945.85 49.0943 946.086 49.5757 946.315 49.9791L947.936 48.2368C947.708 47.778 947.487 47.342 947.259 46.8832C945.898 43.9872 944.217 39.285 943.203 36.3015C943.526 36.4784 943.833 36.6653 944.155 36.8421C945.752 37.7365 947.38 38.6661 948.591 39.7562L949.647 37.2776C948.268 36.021 946.532 35.0508 944.843 34.1059C943.231 33.1662 941.58 32.2239 940.377 31.1565Z" fill="#EBFEC2"/>
<path d="M960.395 25.8795L958.393 26.3604C958.59 27.7917 958.806 29.8949 959.005 32.1179C955.926 31.493 953.02 31.4402 951.731 34.9592L953.537 36.4109C954.26 34.4368 956.197 34.4903 959.246 35.1352C959.541 39.1016 959.754 42.8206 959.712 43.4773C959.745 43.0728 960.015 42.4864 960.52 42.3775L960.664 43.7613L959.737 44.3365L961.021 45.2254C961.12 45.1881 961.219 45.1509 961.296 45.101C961.863 44.7325 961.9 43.7785 961.388 36.5876C961.36 36.2779 961.339 35.9357 961.318 35.5935C963.17 36.004 965.037 36.3496 966.793 36.138L966.545 33.2081C964.88 33.4149 962.952 32.9993 961.078 32.5763C960.872 30.056 960.622 27.5107 960.395 25.8795Z" fill="#EBFEC2"/>
<path d="M974.137 27.7729C974.818 22.2332 974.574 16.3136 972.434 14.5158C970.892 13.2291 968.954 14.3253 966.667 17.7746L968.151 19.8349C969.909 17.1933 971.037 16.6779 971.468 17.0245C972.504 17.9047 972.88 23.3841 971.8 29.4008L971.374 31.8583L973.066 31.2493C975.504 30.373 977.883 29.2079 980.178 28.0701C982.428 26.962 984.761 25.8268 987.131 24.9677L986.571 22.1154C984.133 22.9917 981.754 24.1567 979.474 25.2846C977.72 26.1523 975.951 27.0298 974.137 27.7729Z" fill="#EBFEC2"/>
<path d="M994.927 -7.23327C989.332 -13.1871 983.732 -19.5927 978.178 -26.2425C977.8 -26.8805 977.407 -27.5088 977.007 -28.1591C977.142 -28.3005 977.278 -28.4419 977.399 -28.5736L976.29 -31.0128C976.064 -30.8129 975.853 -30.569 975.619 -30.3374C968.588 -41.4076 960.047 -52.998 956.53 -55.964C955.74 -56.6296 954.725 -57.3103 953.921 -56.8159L954.009 -56.552C953.823 -56.7794 953.63 -57.0289 953.459 -57.266C953.808 -57.9736 954.165 -58.6593 954.521 -59.3449L954.673 -59.7109L954.676 -60.1408C954.68 -60.7855 954.703 -62.1384 953.86 -62.5818C953.038 -63.0131 952.545 -62.0249 952.197 -61.371C952.075 -61.1319 951.84 -60.6854 951.772 -60.6147L952.111 -59.603C952.042 -59.4786 951.989 -59.3639 951.921 -59.2395C951.884 -59.2957 951.832 -59.3422 951.795 -59.3985L950.485 -57.2932C950.575 -57.1904 950.671 -57.0657 950.745 -56.9533C946.885 -49.4504 942.831 -42.0896 938.666 -34.8974C938.366 -34.8637 938.081 -34.8398 937.775 -34.8818L936.629 -34.9693L936.776 -33.3255C936.818 -32.8175 936.822 -32.2582 936.811 -31.6892C935.985 -30.2718 935.137 -28.8666 934.297 -27.4394C933.645 -28.5688 933.03 -29.6419 932.824 -30.3114L931.406 -34.6633L930.935 -29.9972C930.655 -27.1673 930.984 -24.8125 931.344 -22.5309C925.932 -13.5948 920.424 -4.83712 914.983 3.79613C908.862 13.5125 902.612 23.446 896.54 33.585L896.428 33.5774L896.263 33.6846C895.736 34.0256 894.991 34.5884 894.767 35.6699C894.697 36.0092 894.695 36.3316 894.723 36.6345C892.089 41.0697 889.514 45.5197 887.006 50.0064L888.59 51.8432C888.681 51.6773 888.772 51.5114 888.863 51.3454L889.603 53.9427C895.285 50.851 900.83 47.0729 906.255 43.319C907.035 45.4352 907.304 47.9364 907.084 50.7811L909.074 51.2046C909.343 47.7934 908.972 44.7157 908.015 42.0717C908.354 41.8256 908.715 41.5918 909.054 41.3457C916.999 35.7719 925.245 30.0032 934.118 25.8352C939.603 23.2463 945.954 18.6515 952.682 13.7593C965.482 4.47945 979.968 -6.05277 990.921 -3.83589L991.126 -6.67083C979.56 -9.02553 964.758 1.71127 951.724 11.169C945.064 15.9905 938.766 20.5781 933.424 23.1013C924.431 27.3472 916.139 33.1451 908.119 38.7677C907.705 39.0624 907.291 39.3572 906.87 39.63C906.788 39.4956 906.729 39.3733 906.647 39.2389C904.838 36.3443 902.16 34.4665 899.071 33.8189C904.816 24.2924 910.711 14.937 916.484 5.76708C921.591 -2.32949 926.752 -10.5407 931.846 -18.8962C931.86 -18.7985 931.867 -18.7228 931.882 -18.6251L933.868 -18.8683C933.784 -19.8306 933.648 -20.732 933.511 -21.6334C933.799 -22.0871 934.064 -22.5531 934.336 -22.9971C934.907 -22.0022 935.425 -21.0537 935.624 -20.4599L937.042 -16.1081L937.513 -20.7741C937.641 -22.0878 937.86 -23.5136 938.071 -24.9077C938.352 -26.7486 938.634 -28.6432 938.758 -30.4623C939.084 -31.021 939.409 -31.5797 939.735 -32.1384C939.855 -32.1626 939.997 -32.1746 940.117 -32.1988C940.822 -32.3343 941.422 -32.4554 941.788 -32.2374L942.449 -34.9128C942.135 -35.0843 941.821 -35.1483 941.499 -35.1806C943.597 -38.8133 945.658 -42.5023 947.674 -46.2157C950.25 -42.5602 957.723 -39.6412 963.341 -40.7915C966.796 -36.4214 970.282 -32.0708 973.791 -27.8155C970.908 -23.1926 968.457 -15.9071 967.832 -10.6601C967.453 -7.52506 967.685 -5.13382 968.492 -3.5426L970.09 -5.16629C969.646 -6.05599 969.537 -7.80473 969.806 -10.0657C970.431 -15.3127 972.847 -21.934 975.359 -25.9152C975.843 -25.3454 976.311 -24.7658 976.802 -24.1739C981.569 -16.3191 984.164 -10.9102 984.303 -9.18094L986.289 -9.42416C986.163 -10.7871 985.331 -13.0035 984.022 -15.7141C987.264 -11.9818 990.53 -8.34472 993.789 -4.8908L994.927 -7.23327ZM905.049 40.9163C899.812 44.5753 894.418 48.2023 888.961 51.2015C891.249 47.0978 893.619 43.0211 896.004 38.9884L897.221 39.6719C897.452 38.7199 897.247 37.8892 897.026 37.2832C897.178 37.0246 897.329 36.766 897.481 36.5074C900.603 36.7057 903.305 38.2733 905.049 40.9163ZM932.98 -25.2486C932.972 -25.2706 932.98 -25.3024 932.973 -25.3243C932.98 -25.3024 932.98 -25.3024 933.002 -25.2901C932.995 -25.2584 932.995 -25.2584 932.98 -25.2486ZM936.128 -25.629C936.074 -25.2994 936.026 -24.9479 935.972 -24.6183C935.876 -24.7967 935.757 -24.9874 935.638 -25.1781C935.828 -25.4879 936.017 -25.7977 936.206 -26.1076C936.168 -25.9489 936.144 -25.8 936.128 -25.629ZM948.887 -48.4994C950.039 -50.6367 951.169 -52.7863 952.291 -54.9578C955.248 -51.1479 958.235 -47.3037 961.26 -43.457C956.262 -43.2434 950.339 -45.962 948.887 -48.4994Z" fill="#EBFEC2"/>
<path d="M1846.45 105.777C1872.94 143.095 1896.67 54.5423 1933.28 27.0971C1945.48 17.9463 1950.31 7.755 1965.24 4.64388C1982.52 1.04455 2047.41 -6.92648 2008.79 16.7098C1970.16 40.346 1871.04 130.508 1882.91 137.087C1894.78 143.667 1953.74 107.064 1956.16 135.589C1958.34 161.27 1913.34 147.713 1899.57 169.492C1877.42 204.506 1956.38 274.581 1925.3 272.425C1894.22 270.269 1910.28 299.343 1873.77 268.851C1837.26 238.36 1980.8 420.185 1931.17 401.118C1881.54 382.051 1836 280.211 1821.22 280.008C1806.44 279.806 1808.23 332.103 1785.91 326.9C1768.18 322.767 1775.72 225.046 1762.41 286.62C1749.1 348.194 1756.11 377.464 1744.93 337.215C1733.75 296.967 1764.04 286.733 1737.05 284.861C1710.06 282.989 1549.26 409.168 1549.26 409.168L1511.3 387.622C1511.3 387.622 1776.32 263.736 1739.55 248.851C1702.77 233.966 1640.71 192.656 1653.01 181.174C1665.32 169.691 1723.17 188.461 1745.79 158.827C1777.74 116.981 1652.69 76.5531 1687.66 37.1991C1725.57 -5.4759 1750.96 161.355 1799.48 131.301C1822.25 117.195 1815.65 55.047 1835.58 72.9513C1845.62 81.9741 1838.64 94.7654 1846.45 105.777Z" stroke="#EBFEC2" stroke-width="4"/>
<path d="M132.647 284.565C132.101 283.582 131.002 283.17 130.019 283.716C128.417 284.551 126.826 285.162 125.179 285.677L123.563 279.645C130.628 276.76 136.518 271.688 140.39 264.982C145.019 256.965 146.185 247.616 144.048 238.587C139.322 221.437 122.673 210.746 105.605 213.151L104.083 207.471C105.923 207.017 107.739 206.769 109.501 206.615C110.626 206.596 111.371 205.69 111.353 204.566C111.237 203.608 110.331 202.862 109.47 202.811C107.384 203.031 105.236 203.361 103.111 203.845L102.114 200.123C101.831 199.069 100.829 198.49 99.7752 198.773C98.7213 199.055 98.1428 200.057 98.4251 201.111L99.46 204.841C88.7806 208.255 79.8717 215.502 74.2507 225.238C68.368 235.427 66.8799 247.263 69.9154 258.592C72.6207 268.253 78.3741 276.323 85.8521 282.046L72.6308 301.584L65.842 297.665C61.1651 294.965 55.3686 296.518 52.6683 301.195C52.0896 302.197 52.372 303.251 53.3742 303.829L93.4626 326.974C94.4648 327.553 95.5186 327.271 96.0973 326.268C98.7975 321.592 97.2445 315.795 92.5674 313.095L85.7786 309.175L96.0888 287.956C104.259 291.352 113.447 292.377 122.479 290.354L123.513 294.213C123.654 294.74 123.892 295.1 124.393 295.389C124.727 295.582 125.325 295.705 125.851 295.563C126.905 295.281 127.484 294.279 127.202 293.225L126.184 289.428C128.068 288.872 129.952 288.105 131.798 287.193C132.781 286.647 133.193 285.548 132.647 284.565ZM89.6331 246.813C89.8001 246.91 89.8001 246.91 90.1342 247.103C93.3267 250.06 91.1087 253.901 90.9158 254.235L90.8194 254.402C89.8999 256.767 89.4933 262.1 95.4101 265.739C99.1852 267.918 99.6642 273.569 99.5996 276.465C91.4947 273.424 84.7405 267.044 81.5149 258.581C81.8568 258.351 81.9568 258.18 82.2402 257.689C84.1758 252.794 87.6218 247.211 89.6331 246.813ZM103.672 277.682C103.759 274.943 103.562 266.181 97.5058 262.494C93.4264 259.917 94.3012 256.858 94.5199 256.094C95.8701 253.755 97.2339 248.307 92.8979 244.244C91.7545 243.139 90.3924 242.798 88.908 243.054C85.2372 243.926 81.8752 249.562 80.0286 253.303C78.8899 247.217 79.667 241.121 81.9609 235.7C84.9158 237.375 87.5306 237.774 89.9638 236.983C93.6782 235.564 94.9389 231.837 94.9389 231.837C98.932 223.438 104.543 218.651 107.124 216.964C109.639 216.697 112.143 216.742 114.585 217.077C112.3 218.786 110.176 220.259 108.886 221.182C106.366 222.845 105.287 223.558 106.141 225.165C106.211 225.428 106.449 225.788 106.783 225.981C107.284 226.27 107.882 226.393 109.032 225.943C110.709 225.353 116.562 227.173 121.098 229.346C121.599 229.635 122.293 229.591 122.653 229.353C123.276 229.045 123.566 228.544 123.951 227.876C124.074 227.278 124.363 226.777 124.986 226.469C127.12 225.474 131.373 226.593 133.571 227.416C133.604 227.435 133.638 227.452 133.672 227.468C135.132 229.167 136.418 231.038 137.495 233.055C136.963 236.24 135.77 238.555 134.691 238.976C133.901 239.188 132.899 238.609 132.16 237.96C131.473 236.45 129.289 232.517 125.916 232.573C123.667 232.611 121.842 234.23 120.44 237.429C118.544 238.785 114.514 241.135 112.606 239.811C112.272 239.618 112.009 239.688 111.842 239.592C111.508 239.399 109.285 239.006 107.53 240.889C105.678 242.938 105.305 246.285 106.479 251.195C107.653 256.104 108.964 257.306 110.827 257.937C110.994 258.033 110.994 258.033 110.994 258.033C111.135 258.56 111.488 259.877 111.705 264.902C111.557 265.93 111.113 269.015 113.188 270.435C113.354 270.532 113.354 270.532 113.522 270.628C115.693 271.882 118.643 270.244 119.626 269.698C120.706 268.985 121.786 268.272 122.865 267.56C127.513 264.491 130.407 262.498 135.074 266.056C130.92 271.643 125.052 275.587 118.3 277.396C113.366 278.718 108.367 278.741 103.672 277.682ZM98.9912 219.032C96.3237 221.724 93.5081 225.443 91.3088 230.41C91.3088 230.41 90.4857 232.607 88.5448 233.268C87.2462 233.616 85.6472 233.356 83.6816 232.24C86.3974 227.537 90.3345 223.539 95.1803 220.787C96.3999 220.117 97.6715 219.528 98.9912 219.032ZM125.561 220.79C126.386 221.279 127.197 221.819 127.996 222.415C126.274 222.311 124.622 222.472 123.112 223.159C122.225 223.537 121.409 224.18 120.926 225.015C118.993 224.121 116.294 223.009 113.737 222.423C115.537 221.235 117.529 219.713 119.521 218.19C119.789 218.267 120.053 218.349 120.317 218.433C122.138 219.053 123.894 219.843 125.561 220.79ZM125.948 236.377C126.642 236.332 128.093 238.061 128.851 239.835C128.921 240.098 128.992 240.362 129.326 240.555C131.542 242.503 133.836 243.159 135.873 242.33C137.55 241.74 138.849 240.262 139.646 238.495C139.787 239.023 139.858 239.286 139.928 239.549C142.143 247.286 141.125 255.607 137.075 262.623C130.374 257.641 125.239 261.135 120.56 264.224C119.481 264.937 118.497 265.483 117.417 266.196C116.241 267.076 115.547 267.12 115.284 267.191C115.31 266.76 115.265 266.066 115.387 265.469C115.484 265.302 115.317 265.206 115.413 265.038C115.3 258.291 114.664 255.92 112.827 254.859C112.66 254.763 112.326 254.57 111.921 254.114C111.587 253.921 110.99 253.798 110.168 250.206C108.994 245.297 110.029 243.89 110.222 243.556C110.415 243.222 110.582 243.318 110.845 243.248C115.618 245.781 122.316 240.739 123.132 240.097C123.492 239.859 123.588 239.692 123.781 239.358C124.964 236.923 125.684 236.448 125.948 236.377ZM90.8058 316.532C92.9772 317.785 94.0431 320.183 93.554 322.573L57.3074 301.646C59.1328 300.027 61.7417 299.752 63.9131 301.005L72.265 305.827L82.2871 311.614L90.8058 316.532ZM92.6148 286.396L82.5456 307.308L76.0312 303.547L89.107 284.371L92.6148 286.396ZM73.6043 257.603C70.851 247.328 72.191 236.521 77.4244 227.07C82.5201 218.244 90.7166 211.606 100.479 208.513L101.964 213.865C101.794 213.908 101.624 213.95 101.454 213.995C97.4614 215.095 93.82 216.843 90.6112 219.091C90.6082 219.093 90.605 219.095 90.6017 219.097C90.5325 219.146 90.463 219.194 90.3943 219.242C85.7244 222.48 81.8358 226.853 79.1962 232.102C79.0569 232.343 78.9975 232.611 79.0006 232.882C75.6231 240.048 74.662 248.378 76.8624 256.589C76.9968 257.091 77.1435 257.587 77.2983 258.078C77.307 258.198 77.3254 258.317 77.3565 258.433C79.8852 266.344 85.2298 272.973 92.21 277.24C92.2247 277.249 92.2393 277.259 92.254 277.268C92.4889 277.411 92.7257 277.552 92.9643 277.69C93.2495 277.854 93.5379 278.013 93.8278 278.17C93.912 278.215 93.9967 278.259 94.0808 278.304C94.266 278.402 94.4519 278.498 94.6389 278.593C94.8128 278.681 94.9878 278.768 95.1627 278.854C95.1666 278.856 95.1707 278.858 95.1745 278.86C96.9778 279.743 98.8378 280.505 100.866 281.361C101.196 281.381 101.623 281.455 102.011 281.308C107.522 282.648 113.445 282.65 119.289 281.084C119.508 281.025 119.727 280.963 119.945 280.9L121.484 286.643C100.619 291.002 79.4251 278.302 73.6043 257.603Z" fill="#EBFEC2"/>
<path d="M390.506 329.054C390.946 329.086 391.371 329.023 391.761 328.881C392.846 328.486 393.655 327.484 393.745 326.258C393.768 325.944 393.794 325.625 393.822 325.301C393.967 323.637 392.735 322.17 391.07 322.025C389.405 321.88 387.938 323.112 387.793 324.777C387.763 325.127 387.735 325.473 387.71 325.815C387.587 327.481 388.839 328.931 390.506 329.054Z" fill="#EBFEC2"/>
<path d="M433.693 227.046C432.738 226.687 431.667 226.834 430.845 227.435C419.29 235.878 409.994 253.289 404.231 266.408C397.366 282.034 391.694 300.346 389.06 315.394C388.772 317.04 389.872 318.608 391.519 318.896C392.059 318.991 392.592 318.936 393.073 318.761C394.056 318.402 394.827 317.543 395.021 316.438C397.576 301.841 403.09 284.048 409.771 268.842C416.336 253.898 423.643 242.287 430.703 235.474C431.751 241.002 432.393 246.242 432.65 251.348L422.677 259.588C421.679 260.412 421.316 261.78 421.774 262.991C422.232 264.202 423.409 264.987 424.703 264.945L432.364 264.695C432.121 267.098 431.77 269.431 431.316 271.673L416.913 275.328C415.668 275.644 414.758 276.712 414.644 277.991C414.529 279.271 415.235 280.483 416.404 281.015L426.577 285.645C425.28 288.222 423.776 290.645 422.082 292.887L413.411 290.098C412.311 289.745 411.106 290.048 410.305 290.88C409.504 291.712 409.246 292.928 409.641 294.014L412.622 302.203C409.204 304.725 405.326 306.903 401.065 308.69C399.524 309.336 398.799 311.109 399.445 312.65C400.092 314.191 401.866 314.916 403.406 314.27C408.915 311.959 413.867 309.041 418.124 305.597C419.128 304.784 419.506 303.424 419.064 302.21L417.441 297.752L422.225 299.29C423.402 299.669 424.691 299.293 425.48 298.341C428.674 294.49 431.334 290.12 433.387 285.352C434.038 283.84 433.36 282.084 431.861 281.402L426.749 279.075L434.617 277.078C435.712 276.8 436.562 275.934 436.819 274.832C437.777 270.726 438.4 266.32 438.669 261.738C438.719 260.889 438.41 260.058 437.816 259.449C437.223 258.84 436.4 258.509 435.55 258.536L433.364 258.608L437.665 255.054C438.39 254.455 438.796 253.553 438.762 252.613C438.494 245.172 437.453 237.518 435.581 229.213C435.357 228.218 434.647 227.404 433.693 227.046Z" fill="#EBFEC2"/>
<path d="M406.877 334.673L406.227 334.574C405.313 334.436 404.26 333.547 404.084 333.062L403.511 331.489C405.764 328.554 406.599 325.228 405.504 322.221C404.933 320.65 403.197 319.841 401.626 320.412C400.056 320.984 399.246 322.72 399.818 324.29C400.596 326.429 397.348 330.425 391.995 332.374C386.642 334.322 381.585 333.348 380.807 331.21C380.348 329.95 381.296 328.015 383.223 326.281C384.464 325.162 384.565 323.249 383.446 322.008C382.328 320.766 380.415 320.665 379.173 321.784C375.288 325.282 373.773 329.58 375.12 333.28C376.215 336.287 378.992 338.298 382.604 339.099L383.177 340.672C383.353 341.157 383.118 342.514 382.508 343.207L382.072 343.701C380.076 345.966 379.349 349.814 380.382 352.652L382.743 359.14C383.974 362.521 387.727 364.271 391.108 363.04L412.387 355.296C415.768 354.065 417.518 350.313 416.287 346.931L413.925 340.443C412.893 337.605 409.863 335.125 406.877 334.673ZM410.6 349.001C410.687 349.238 410.554 349.523 410.317 349.609L389.039 357.354C388.801 357.44 388.516 357.308 388.43 357.07L386.068 350.582C385.791 349.819 386.075 348.311 386.612 347.702L387.047 347.208C388.873 345.137 389.681 341.866 389.071 339.302C390.696 339.084 392.376 338.675 394.064 338.06C395.753 337.446 397.303 336.68 398.688 335.801C399.869 338.158 402.59 340.144 405.321 340.558L405.971 340.656C406.774 340.778 407.961 341.749 408.239 342.512L410.6 349.001Z" fill="#EBFEC2"/>
<path d="M926.51 330.695L918.833 326.677L920.177 318.336C920.325 317.413 918.987 316.713 918.314 317.361L912.226 323.219L904.549 319.202C904.124 318.98 903.608 319.05 903.271 319.373C902.935 319.697 902.852 320.202 903.071 320.625L906.984 328.262L900.896 334.123C900.559 334.446 900.477 334.952 900.695 335.374C900.912 335.798 901.374 336.04 901.847 335.977L910.355 334.838L914.269 342.475C914.378 342.687 914.548 342.854 914.749 342.959C914.951 343.065 915.185 343.11 915.421 343.078C915.89 343.015 916.261 342.661 916.335 342.2L917.679 333.856L926.185 332.718C926.654 332.656 927.025 332.301 927.099 331.84C927.173 331.379 926.935 330.917 926.51 330.695ZM916.544 331.82C916.074 331.883 915.704 332.237 915.63 332.699L914.69 338.538L911.95 333.193C911.842 332.98 911.672 332.814 911.47 332.708C911.268 332.603 911.035 332.558 910.798 332.59L904.844 333.386L909.107 329.285C909.443 328.961 909.526 328.456 909.307 328.033L906.568 322.688L911.941 325.5C912.366 325.722 912.882 325.652 913.218 325.328L917.479 321.226L916.539 327.066C916.465 327.527 916.701 327.991 917.126 328.213L922.499 331.025L916.544 331.82Z" fill="#CEEBC5"/>
<path d="M1465.2 258.367L1464.04 266.954L1455.74 268.54C1454.82 268.715 1454.62 270.212 1455.46 270.624L1463.05 274.345L1461.89 282.932C1461.83 283.408 1462.07 283.869 1462.49 284.075C1462.91 284.28 1463.41 284.185 1463.73 283.836L1469.58 277.55L1477.16 281.271C1477.58 281.477 1478.09 281.382 1478.41 281.033C1478.73 280.684 1478.8 280.167 1478.58 279.744L1474.61 272.136L1480.45 265.849C1480.61 265.675 1480.71 265.458 1480.74 265.233C1480.77 265.007 1480.73 264.772 1480.62 264.561C1480.4 264.141 1479.94 263.914 1479.48 264.002L1471.18 265.587L1467.21 257.981C1466.99 257.562 1466.53 257.335 1466.07 257.423C1465.61 257.51 1465.26 257.891 1465.2 258.367ZM1469.66 267.35C1469.88 267.77 1470.34 267.997 1470.79 267.909L1476.6 266.798L1472.51 271.199C1472.35 271.373 1472.25 271.59 1472.22 271.815C1472.19 272.041 1472.23 272.276 1472.34 272.487L1475.12 277.811L1469.81 275.206C1469.39 275 1468.89 275.095 1468.57 275.444L1464.48 279.845L1465.29 273.834C1465.35 273.359 1465.11 272.898 1464.69 272.692L1459.38 270.089L1465.19 268.978C1465.65 268.89 1466 268.51 1466.07 268.034L1466.88 262.024L1469.66 267.35Z" fill="#CEEBC5"/>
<path d="M1401.05 125.253L1399.9 133.84L1391.6 135.426C1390.68 135.602 1390.48 137.098 1391.32 137.51L1398.9 141.231L1397.75 149.819C1397.68 150.294 1397.93 150.755 1398.35 150.961C1398.76 151.167 1399.27 151.071 1399.59 150.722L1405.43 144.436L1413.02 148.158C1413.44 148.363 1413.94 148.268 1414.26 147.919C1414.59 147.57 1414.66 147.053 1414.44 146.63L1410.46 139.022L1416.3 132.736C1416.47 132.561 1416.56 132.345 1416.59 132.119C1416.62 131.893 1416.59 131.658 1416.48 131.447C1416.26 131.027 1415.8 130.8 1415.34 130.888L1407.04 132.474L1403.06 124.868C1402.84 124.448 1402.39 124.221 1401.93 124.309C1401.47 124.397 1401.11 124.777 1401.05 125.253ZM1405.51 134.236C1405.73 134.656 1406.19 134.883 1406.65 134.795L1412.46 133.684L1408.37 138.085C1408.21 138.259 1408.11 138.476 1408.08 138.702C1408.05 138.927 1408.09 139.162 1408.2 139.373L1410.98 144.698L1405.67 142.092C1405.25 141.886 1404.75 141.981 1404.42 142.331L1400.33 146.731L1401.14 140.721C1401.21 140.245 1400.97 139.784 1400.55 139.578L1395.24 136.975L1401.05 135.864C1401.5 135.776 1401.86 135.396 1401.92 134.92L1402.73 128.91L1405.51 134.236Z" fill="#CEEBC5"/>
<path d="M1588.75 48.5232L1581.92 53.8522L1574.88 49.1802C1574.1 48.6639 1572.91 49.5926 1573.22 50.4734L1576.04 58.4389L1569.21 63.7679C1568.83 64.063 1568.68 64.5614 1568.84 65.0018C1568.99 65.4422 1569.42 65.7261 1569.89 65.7021L1578.47 65.296L1581.28 73.2632C1581.44 73.7036 1581.87 73.9875 1582.34 73.9635C1582.82 73.9411 1583.23 73.6202 1583.37 73.1639L1585.85 64.9457L1594.42 64.5397C1594.66 64.5285 1594.88 64.4427 1595.06 64.3027C1595.24 64.1626 1595.38 63.9683 1595.44 63.7401C1595.58 63.2868 1595.41 62.803 1595.02 62.5449L1587.98 57.8711L1590.46 49.656C1590.6 49.2028 1590.43 48.719 1590.04 48.4608C1589.65 48.2027 1589.13 48.2281 1588.75 48.5232ZM1585.66 58.0634C1585.52 58.5167 1585.69 59.0005 1586.08 59.2586L1591.01 62.5288L1585.01 62.8132C1584.77 62.8244 1584.55 62.9102 1584.37 63.0503C1584.19 63.1903 1584.05 63.3846 1583.98 63.6128L1582.25 69.3632L1580.28 63.7868C1580.12 63.3464 1579.69 63.0625 1579.22 63.0865L1573.22 63.3709L1578 59.641C1578.38 59.3459 1578.53 58.8475 1578.37 58.4071L1576.4 52.832L1581.33 56.1023C1581.72 56.3604 1582.24 56.3367 1582.61 56.0416L1587.4 52.3117L1585.66 58.0634Z" fill="#CEEBC5"/>
<path d="M1193.92 45.6509L1188.64 38.7837L1193.35 31.7749C1193.88 30.9999 1192.96 29.8031 1192.07 30.1085L1184.09 32.8732L1178.8 26.0059C1178.51 25.6257 1178.01 25.4728 1177.57 25.6255C1177.13 25.7782 1176.85 26.2024 1176.87 26.6774L1177.22 35.2518L1169.23 38.0178C1168.79 38.1704 1168.5 38.5947 1168.52 39.0696C1168.54 39.5458 1168.86 39.9594 1169.32 40.1L1177.52 42.6356L1177.87 51.21C1177.88 51.4481 1177.96 51.6705 1178.1 51.851C1178.24 52.0315 1178.43 52.17 1178.66 52.2403C1179.11 52.3804 1179.6 52.2138 1179.86 51.8263L1184.58 44.8162L1192.78 47.3514C1193.23 47.4915 1193.71 47.3249 1193.97 46.9374C1194.23 46.5499 1194.21 46.0312 1193.92 45.6509ZM1184.4 42.4919C1183.95 42.3517 1183.46 42.5184 1183.2 42.9059L1179.9 47.8127L1179.65 41.8107C1179.65 41.5726 1179.56 41.3502 1179.42 41.1697C1179.28 40.9892 1179.09 40.8507 1178.86 40.7804L1173.12 39.0056L1178.71 37.0707C1179.15 36.9181 1179.44 36.4938 1179.42 36.0189L1179.18 30.017L1182.87 34.8235C1183.17 35.2037 1183.66 35.3566 1184.1 35.2039L1189.69 33.2673L1186.39 38.1741C1186.13 38.5616 1186.15 39.0816 1186.44 39.4618L1190.14 44.2684L1184.4 42.4919Z" fill="#CEEBC5"/>
<path d="M65.7544 145.523L58.9223 150.852L51.8825 146.18C51.104 145.664 49.9133 146.593 50.2246 147.473L53.0421 155.439L46.21 160.768C45.8317 161.063 45.6821 161.561 45.8377 162.002C45.9933 162.442 46.4195 162.726 46.8943 162.702L55.4661 162.296L58.285 170.263C58.4406 170.704 58.8667 170.987 59.3415 170.963C59.8176 170.941 60.229 170.62 60.3666 170.164L62.8478 161.946L71.4197 161.54C71.6577 161.529 71.8796 161.443 72.0592 161.303C72.2387 161.163 72.376 160.968 72.4447 160.74C72.5819 160.287 72.412 159.803 72.0228 159.545L64.9816 154.871L67.4624 146.656C67.5995 146.203 67.4297 145.719 67.0404 145.461C66.6512 145.203 66.1327 145.228 65.7544 145.523ZM62.6585 155.063C62.5214 155.517 62.6912 156 63.0804 156.259L68.009 159.529L62.0088 159.813C61.7708 159.824 61.5489 159.91 61.3693 160.05C61.1897 160.19 61.0525 160.385 60.9837 160.613L59.247 166.363L57.2752 160.787C57.1196 160.346 56.6934 160.063 56.2186 160.087L50.2185 160.371L55.0004 156.641C55.3787 156.346 55.5283 155.847 55.3727 155.407L53.399 149.832L58.3276 153.102C58.7168 153.36 59.2367 153.337 59.615 153.042L64.3969 149.312L62.6585 155.063Z" fill="#CEEBC5"/>
<path d="M576.301 309.933L567.977 307.525L567.633 299.083C567.595 298.149 566.144 297.729 565.613 298.498L560.814 305.452L552.491 303.043C552.03 302.91 551.538 303.081 551.273 303.465C551.008 303.85 551.028 304.361 551.325 304.732L556.681 311.437L551.881 318.392C551.616 318.777 551.636 319.288 551.934 319.659C552.231 320.031 552.732 320.176 553.182 320.02L561.294 317.21L566.65 323.915C566.799 324.101 566.998 324.231 567.217 324.294C567.436 324.357 567.674 324.354 567.899 324.276C568.346 324.122 568.639 323.7 568.619 323.234L568.276 314.79L576.385 311.981C576.832 311.826 577.125 311.405 577.105 310.938C577.086 310.472 576.761 310.067 576.301 309.933ZM566.758 313.021C566.31 313.175 566.018 313.597 566.037 314.063L566.279 319.973L562.529 315.28C562.381 315.094 562.181 314.964 561.962 314.901C561.744 314.838 561.506 314.84 561.281 314.919L555.604 316.884L558.965 312.017C559.23 311.632 559.21 311.121 558.912 310.75L555.163 306.057L560.989 307.743C561.45 307.876 561.941 307.705 562.206 307.321L565.565 302.453L565.806 308.363C565.825 308.829 566.149 309.236 566.61 309.37L572.436 311.055L566.758 313.021Z" fill="#CEEBC5"/>
<path d="M810.754 181.523L803.922 186.852L796.882 182.18C796.104 181.664 794.913 182.593 795.225 183.473L798.042 191.439L791.21 196.768C790.832 197.063 790.682 197.561 790.838 198.002C790.993 198.442 791.419 198.726 791.894 198.702L800.466 198.296L803.285 206.263C803.441 206.704 803.867 206.987 804.342 206.963C804.818 206.941 805.229 206.62 805.367 206.164L807.848 197.946L816.42 197.54C816.658 197.529 816.88 197.443 817.059 197.303C817.239 197.163 817.376 196.968 817.445 196.74C817.582 196.287 817.412 195.803 817.023 195.545L809.982 190.871L812.462 182.656C812.6 182.203 812.43 181.719 812.04 181.461C811.651 181.203 811.133 181.228 810.754 181.523ZM807.658 191.063C807.521 191.517 807.691 192 808.08 192.259L813.009 195.529L807.009 195.813C806.771 195.824 806.549 195.91 806.369 196.05C806.19 196.19 806.053 196.385 805.984 196.613L804.247 202.363L802.275 196.787C802.12 196.346 801.693 196.063 801.219 196.087L795.218 196.371L800 192.641C800.379 192.346 800.528 191.847 800.373 191.407L798.399 185.832L803.328 189.102C803.717 189.36 804.237 189.337 804.615 189.042L809.397 185.312L807.658 191.063Z" fill="#CEEBC5"/>
<path d="M1168.42 283.62C1168.53 282.265 1167.53 281.071 1166.18 280.952L1150.5 279.581C1149.85 279.524 1149.2 279.728 1148.7 280.148C1148.2 280.568 1147.89 281.169 1147.83 281.82L1146.31 299.208L1139.3 290.487C1138.64 289.666 1137.53 289.355 1136.54 289.716L1091.03 306.278C1090.34 306.532 1089.79 307.085 1089.55 307.784L1084.56 322.138C1084.28 322.94 1084.44 323.828 1084.97 324.49L1131.28 382.085C1131.94 382.907 1133.05 383.217 1134.04 382.856L1182.94 365.06C1184.21 364.595 1184.87 363.181 1184.41 361.903C1183.94 360.625 1182.53 359.966 1181.25 360.431L1134.01 377.624L1090.97 324.085L1101.88 320.115L1101.88 320.115C1102.67 319.828 1103.26 319.158 1103.44 318.337C1103.62 317.517 1103.38 316.66 1102.78 316.064L1096.34 309.589L1136.57 294.948L1145.69 306.297L1142.31 344.923C1142.27 345.369 1142.36 345.811 1142.55 346.207C1142.55 346.208 1142.55 346.208 1142.55 346.209L1149.23 360.05C1149.61 360.832 1150.37 361.357 1151.24 361.432C1151.6 361.464 1151.96 361.414 1152.29 361.293C1152.75 361.127 1153.16 360.826 1153.45 360.419L1162.44 347.949C1162.44 347.949 1162.44 347.949 1162.44 347.948C1162.69 347.6 1162.85 347.182 1162.9 346.724L1164.4 329.561L1189.57 360.869C1190.25 361.713 1191.37 361.992 1192.33 361.641C1192.58 361.551 1192.81 361.419 1193.03 361.245C1194.09 360.393 1194.26 358.843 1193.41 357.783L1165.02 322.471L1168.42 283.62ZM1090.92 318.861L1092.91 313.124L1096.57 316.804L1090.92 318.861ZM1152.53 284.703L1163.29 285.645L1162.83 290.953L1152.06 290.011L1152.53 284.703ZM1148.87 347.969L1155.91 348.585L1151.87 354.185L1148.87 347.969ZM1158.2 343.841L1147.43 342.899L1151.63 294.918L1162.4 295.86L1158.2 343.841Z" fill="#EBFEC2"/>
<path d="M1153.85 303.303L1151.8 326.77C1151.68 328.125 1152.68 329.319 1154.04 329.438C1154.41 329.47 1154.77 329.419 1155.09 329.3C1155.96 328.983 1156.62 328.184 1156.71 327.199L1158.76 303.732C1158.88 302.377 1157.88 301.183 1156.52 301.064C1155.17 300.945 1153.97 301.948 1153.85 303.303Z" fill="#EBFEC2"/>
<path d="M1153.81 331.996C1152.46 331.878 1151.26 332.88 1151.15 334.235L1151.08 335.026C1150.96 336.381 1151.96 337.576 1153.32 337.694C1153.69 337.727 1154.04 337.676 1154.37 337.556C1155.24 337.239 1155.9 336.44 1155.98 335.455L1156.05 334.664C1156.17 333.309 1155.17 332.115 1153.81 331.996Z" fill="#EBFEC2"/>
<path d="M1104.83 324.312C1103.55 324.778 1102.89 326.191 1103.36 327.469C1103.83 328.747 1105.24 329.406 1106.52 328.941L1106.9 328.801C1108.18 328.336 1108.84 326.923 1108.37 325.645C1107.91 324.366 1106.49 323.707 1105.22 324.172L1104.83 324.312Z" fill="#EBFEC2"/>
<path d="M1137.39 317.706C1138.66 317.241 1139.32 315.828 1138.86 314.549C1138.39 313.271 1136.98 312.612 1135.7 313.077L1112.26 321.611C1110.98 322.076 1110.32 323.489 1110.78 324.768C1111.25 326.046 1112.66 326.705 1113.94 326.24L1137.39 317.706Z" fill="#EBFEC2"/>
<path d="M1140.26 334.477C1139.8 333.199 1138.38 332.54 1137.1 333.005L1117.54 340.124C1116.27 340.589 1115.61 342.002 1116.07 343.281C1116.54 344.559 1117.95 345.218 1119.23 344.753L1138.79 337.634C1140.07 337.169 1140.73 335.755 1140.26 334.477Z" fill="#EBFEC2"/>
<path d="M1130.26 355.935C1128.98 356.4 1128.32 357.814 1128.78 359.092C1129.25 360.37 1130.66 361.029 1131.94 360.564L1141.3 357.156C1142.58 356.691 1143.24 355.278 1142.77 353.999C1142.31 352.721 1140.9 352.062 1139.62 352.527L1130.26 355.935Z" fill="#EBFEC2"/>
<path d="M654.36 -23.3323L652.916 -27.5185C652.366 -29.139 651.139 -30.4351 649.547 -31.0745C647.943 -31.7177 646.143 -31.6299 644.609 -30.8338L607.404 -11.5334C605.869 -10.7374 604.761 -9.31663 604.365 -7.63612C603.971 -5.96651 604.325 -4.21451 605.33 -2.83802L607.997 0.863142C605.982 2.79174 604.446 5.18815 603.584 7.90418C602.2 12.2562 602.602 16.894 604.711 20.9594C609.056 29.3351 619.414 32.6111 627.799 28.2614L629.592 27.331C634.412 30.112 640.169 31.0185 645.64 29.8648L649.966 38.2052L648.985 38.7142C645.871 40.3297 644.492 43.9506 645.563 47.1764L643.661 48.1628C641.992 49.0291 641.337 51.0899 642.204 52.76L643.493 55.2454C643.774 55.7864 644.441 55.9975 644.983 55.7165L677.949 38.6149C678.491 38.334 678.702 37.6669 678.422 37.1259L677.131 34.6384C676.265 32.9684 674.203 32.3164 672.534 33.1827L670.632 34.1691C668.613 31.4379 664.857 30.478 661.743 32.0935L660.762 32.6025L656.435 24.262C660.531 20.4533 663.106 15.2215 663.606 9.68379L665.733 8.58033C669.781 6.48029 672.783 2.9204 674.19 -1.44878C675.558 -5.82033 675.159 -10.4542 673.06 -14.5C669.521 -21.3114 661.786 -24.9032 654.36 -23.3323ZM606.673 19.9414C604.835 16.3994 604.486 12.3614 605.69 8.57031C606.407 6.30797 607.662 4.30607 609.301 2.66973L622.466 20.9331C623.871 22.8933 625.55 24.5696 627.45 25.9571L626.783 26.3032C619.478 30.0901 610.458 27.2371 606.673 19.9414ZM675.167 35.6574L675.949 37.1648L644.945 53.2484L644.163 51.7411C643.858 51.153 644.089 50.4264 644.675 50.122L647.46 48.6775L670.762 36.5893L673.546 35.1448C674.136 34.8414 674.863 35.0713 675.167 35.6574ZM668.653 35.1981L647.539 46.1513C647.002 44.0267 647.973 41.7269 650.002 40.6744L651.964 39.6564L660.795 35.0756L662.757 34.0576C664.786 33.0051 667.225 33.5357 668.653 35.1981ZM651.929 37.1873L647.824 29.2742C649.064 28.8768 650.279 28.4136 651.427 27.8181C652.573 27.2236 653.652 26.4968 654.692 25.7113L658.797 33.6244L651.929 37.1873ZM654.353 23.2004C651.925 25.2736 649.058 26.7609 645.97 27.5491C640.615 28.9016 634.862 28.0227 630.178 25.1338C627.859 23.735 625.869 21.8866 624.261 19.6411L607.119 -4.13684C606.49 -4.99948 606.271 -6.08968 606.516 -7.13465C606.763 -8.18362 607.459 -9.07448 608.421 -9.57327L645.626 -28.8737C646.587 -29.3725 647.716 -29.4283 648.718 -29.0248C649.712 -28.6252 650.478 -27.816 650.821 -26.8047L650.823 -26.8008L652.566 -21.7499C652.568 -21.746 652.566 -21.74 652.566 -21.7351C652.569 -21.7262 652.577 -21.7204 652.58 -21.7096L660.387 0.90554C661.295 3.51144 661.658 6.20374 661.467 8.91245C661.133 14.3943 658.539 19.6036 654.353 23.2004ZM672.081 -2.1109C670.858 1.69236 668.241 4.79389 664.713 6.62417L663.712 7.14333C663.674 4.78982 663.269 2.45281 662.478 0.17901L655.101 -21.1842C661.479 -22.4032 668.06 -19.3271 671.095 -13.478C672.923 -9.95368 673.273 -5.91371 672.081 -2.1109Z" fill="#CEEBC5"/>
<path d="M646.239 -9.51089L638.547 -5.52094L632.481 -11.4015C631.81 -12.0514 630.469 -11.3561 630.614 -10.4333L631.928 -2.08688L624.236 1.90307C623.81 2.124 623.572 2.58669 623.645 3.04808C623.717 3.50947 624.084 3.8665 624.555 3.92971L633.057 5.0979L634.372 13.4462C634.444 13.9076 634.811 14.2646 635.282 14.3278C635.754 14.393 636.218 14.1527 636.436 13.7292L640.378 6.1033L648.88 7.27149C649.116 7.30405 649.35 7.26026 649.552 7.15539C649.754 7.05053 649.925 6.88459 650.034 6.67285C650.252 6.25228 650.173 5.74559 649.838 5.42062L643.77 -0.461837L647.711 -8.08481C647.929 -8.50537 647.85 -9.01206 647.515 -9.33703C647.179 -9.66199 646.665 -9.73182 646.239 -9.51089ZM641.451 -0.697597C641.233 -0.277033 641.311 0.229658 641.647 0.554623L645.894 4.67089L639.943 3.85335C639.707 3.82079 639.473 3.86458 639.271 3.96944C639.069 4.07431 638.899 4.24025 638.789 4.452L636.031 9.78789L635.112 3.94491C635.039 3.48352 634.672 3.12649 634.201 3.06328L628.25 2.24574L633.633 -0.546923C634.059 -0.767852 634.297 -1.23054 634.225 -1.69193L633.304 -7.53389L637.551 -3.41762C637.887 -3.09265 638.402 -3.02092 638.828 -3.24184L644.211 -6.0345L641.451 -0.697597Z" fill="#CEEBC5"/>
<path d="M308.754 221.523L301.922 226.852L294.882 222.18C294.104 221.664 292.913 222.593 293.225 223.473L296.042 231.439L289.21 236.768C288.832 237.063 288.682 237.561 288.838 238.002C288.993 238.442 289.419 238.726 289.894 238.702L298.466 238.296L301.285 246.263C301.441 246.704 301.867 246.987 302.342 246.963C302.818 246.941 303.229 246.62 303.367 246.164L305.848 237.946L314.42 237.54C314.658 237.529 314.88 237.443 315.059 237.303C315.239 237.163 315.376 236.968 315.445 236.74C315.582 236.287 315.412 235.803 315.023 235.545L307.982 230.871L310.462 222.656C310.6 222.203 310.43 221.719 310.04 221.461C309.651 221.203 309.133 221.228 308.754 221.523ZM305.658 231.063C305.521 231.517 305.691 232 306.08 232.259L311.009 235.529L305.009 235.813C304.771 235.824 304.549 235.91 304.369 236.05C304.19 236.19 304.053 236.385 303.984 236.613L302.247 242.363L300.275 236.787C300.12 236.346 299.693 236.063 299.219 236.087L293.218 236.371L298 232.641C298.379 232.346 298.528 231.847 298.373 231.407L296.399 225.832L301.328 229.102C301.717 229.36 302.237 229.337 302.615 229.042L307.397 225.312L305.658 231.063Z" fill="#CEEBC5"/>
<path d="M212.198 71.8063L204.309 68.2222L205.186 59.8188C205.283 58.8897 203.908 58.2651 203.272 58.9491L197.52 65.1375L189.631 61.5535C189.194 61.355 188.683 61.4535 188.365 61.7955C188.047 62.1375 187.993 62.6467 188.234 63.0563L192.567 70.4637L186.814 76.6541C186.496 76.9961 186.441 77.5053 186.683 77.9149C186.923 78.3264 187.398 78.5422 187.866 78.4526L196.299 76.8423L200.631 84.2497C200.751 84.4554 200.93 84.6123 201.138 84.7065C201.345 84.8007 201.581 84.8322 201.815 84.7874C202.28 84.6988 202.63 84.3241 202.678 83.8596L203.556 75.4541L211.986 73.8448C212.451 73.7563 212.801 73.3815 212.849 72.917C212.898 72.4524 212.635 72.0047 212.198 71.8063ZM202.309 73.4847C201.844 73.5733 201.494 73.948 201.446 74.4125L200.832 80.2954L197.799 75.1105C197.679 74.9047 197.5 74.7478 197.293 74.6537C197.086 74.5595 196.85 74.5279 196.616 74.5727L190.715 75.699L194.743 71.3672C195.061 71.0252 195.115 70.516 194.874 70.1064L191.841 64.9214L197.362 67.43C197.799 67.6284 198.31 67.53 198.628 67.188L202.653 62.8552L202.04 68.7381C201.991 69.2026 202.253 69.6523 202.69 69.8507L208.212 72.3593L202.309 73.4847Z" fill="#CEEBC5"/>
<path d="M498.754 60.5232L491.922 65.8522L484.882 61.1802C484.104 60.6639 482.913 61.5926 483.225 62.4734L486.042 70.4389L479.21 75.7679C478.832 76.063 478.682 76.5614 478.838 77.0018C478.993 77.4422 479.419 77.7261 479.894 77.7021L488.466 77.296L491.285 85.2632C491.441 85.7036 491.867 85.9875 492.342 85.9635C492.818 85.9411 493.229 85.6202 493.367 85.1639L495.848 76.9457L504.42 76.5397C504.658 76.5285 504.88 76.4427 505.059 76.3027C505.239 76.1626 505.376 75.9683 505.445 75.7401C505.582 75.2868 505.412 74.803 505.023 74.5449L497.982 69.8711L500.462 61.656C500.6 61.2028 500.43 60.719 500.04 60.4608C499.651 60.2027 499.133 60.2281 498.754 60.5232ZM495.658 70.0634C495.521 70.5167 495.691 71.0005 496.08 71.2586L501.009 74.5288L495.009 74.8132C494.771 74.8244 494.549 74.9102 494.369 75.0503C494.19 75.1903 494.053 75.3846 493.984 75.6128L492.247 81.3632L490.275 75.7868C490.12 75.3464 489.693 75.0625 489.219 75.0865L483.218 75.3709L488 71.641C488.379 71.3459 488.528 70.8475 488.373 70.4071L486.399 64.832L491.328 68.1023C491.717 68.3604 492.237 68.3367 492.615 68.0416L497.397 64.3117L495.658 70.0634Z" fill="#CEEBC5"/>
<path d="M68.7705 19.0978C69.5344 19.0978 70.2827 18.9616 71.009 18.7629C71.4192 19.3391 71.8481 19.9153 72.2989 20.4886C65.3392 29.4241 63.4858 37.9309 67.321 43.9343C70.6552 49.157 77.8779 51.9841 87.5457 51.9841C89.0265 51.9841 90.6013 51.8677 92.1917 51.7343C95.4634 58.24 99.646 62.9093 104.386 65.3617C104.367 65.5547 104.305 65.7364 104.305 65.9323C104.305 69.8294 107.802 73 112.1 73C116.383 73 119.864 69.8294 119.864 65.9323C119.864 65.7449 119.802 65.5689 119.786 65.3844C124.529 62.9065 128.712 58.2287 131.977 51.7343C133.565 51.8677 135.143 51.9841 136.62 51.9841C146.288 51.9841 153.511 49.157 156.845 43.9343C160.693 37.9139 158.845 29.4099 151.876 20.5028C156.435 14.7067 158.795 9.10361 158.777 4.16755C161.341 2.98959 163 0.596774 163 -2.07989C163 -5.97708 159.506 -9.14763 155.208 -9.14763C153.683 -9.14763 152.262 -8.75024 151.031 -8.02644C146.338 -10.4789 139.795 -11.4212 131.962 -10.7599C128.703 -17.2542 124.523 -21.9349 119.783 -24.4128C119.799 -24.5945 119.861 -24.7733 119.861 -24.9606C119.861 -28.8436 116.38 -32 112.097 -32C107.799 -32 104.301 -28.8436 104.301 -24.9606C104.301 -24.7591 104.361 -24.5831 104.383 -24.3844C99.6429 -21.9121 95.4634 -17.2344 92.1948 -10.7485C80.226 -11.7647 71.1656 -8.96313 67.3179 -2.93426C65.74 -0.459126 65.1545 2.43893 65.4613 5.64922C62.7845 6.79595 61 9.28244 61 12.0499C61.0063 15.9414 64.4877 19.0978 68.7705 19.0978ZM94.1641 -7.68582C98.544 -7.15503 103.156 -6.119 107.933 -4.59759C104.868 -3.35151 101.797 -1.99189 98.7663 -0.413713C95.8077 1.12757 92.9681 2.85902 90.2037 4.66995C91.146 0.196555 92.4704 -3.94191 94.1641 -7.68582ZM130.008 -7.68299C131.702 -3.93907 133.026 0.199393 133.969 4.67279C131.204 2.86186 128.364 1.13041 125.409 -0.408035C122.447 -1.96067 119.37 -3.32597 116.258 -4.59191C121.001 -6.10481 125.666 -7.15504 130.008 -7.68299ZM130.008 48.6858C125.584 48.1295 120.913 47.0736 116.245 45.5777C119.36 44.3089 122.444 42.9436 125.403 41.391C128.361 39.8497 131.201 38.1183 133.962 36.3102C133.017 40.7836 131.674 44.9845 130.008 48.6858ZM123.844 2.05006C127.626 4.01995 131.264 6.25381 134.695 8.66082C135.271 12.5438 135.581 16.5148 135.581 20.4886C135.581 24.4511 135.268 28.4193 134.692 32.325C131.264 34.732 127.622 36.9573 123.837 38.9301C120.059 40.9113 116.108 42.6541 112.1 44.1415C108.177 42.6938 104.22 40.9567 100.329 38.9272C96.5466 36.9573 92.9087 34.7235 89.4773 32.3165C88.9013 28.4533 88.5913 24.4823 88.5913 20.4886C88.5913 16.5063 88.9044 12.5381 89.4805 8.64947C92.9087 6.24246 96.5497 4.01711 100.329 2.04722C104.22 0.0177312 108.177 -1.7194 112.1 -3.16701C116.111 -1.67682 120.059 0.0631461 123.844 2.05006ZM138.139 11.2211C141.946 14.1986 145.286 17.3436 147.976 20.4886C145.274 23.6478 141.936 26.7872 138.139 29.742C138.48 26.6765 138.715 23.5854 138.715 20.4915C138.712 17.3834 138.48 14.2895 138.139 11.2211ZM94.1641 48.6858C92.4954 44.9845 91.1523 40.7807 90.2068 36.3073C92.9713 38.1154 95.8109 39.8469 98.7663 41.391C101.8 42.972 104.868 44.3316 107.933 45.5749C103.171 47.0906 98.5628 48.1323 94.1641 48.6858ZM86.0304 29.7533C82.2265 26.7787 78.8891 23.6365 76.1936 20.4858C78.8954 17.3266 82.2359 14.1873 86.0335 11.2353C85.6923 14.2923 85.4606 17.3777 85.4606 20.4858C85.4575 23.6053 85.6891 26.6963 86.0304 29.7533ZM70.0291 42.515C66.9328 37.667 68.5326 30.5708 74.2901 22.8729C77.6212 26.6481 81.7913 30.4005 86.547 33.8464C87.4705 39.3076 88.9827 44.4707 90.9363 48.9924C80.7332 49.6793 73.1442 47.3858 70.0291 42.515ZM112.1 70.1615C109.53 70.1615 107.435 68.2655 107.435 65.9323C107.435 65.5973 107.482 65.2737 107.579 64.9331C108.09 63.0455 109.949 61.7313 112.1 61.7313C114.229 61.7313 116.111 63.0824 116.587 64.9445C116.59 64.9587 116.596 64.9757 116.599 64.9927C116.693 65.3078 116.737 65.6087 116.737 65.9323C116.734 68.2655 114.655 70.1615 112.1 70.1615ZM118.881 62.58C117.554 60.3774 114.968 58.8929 112.1 58.8929C109.189 58.8929 106.621 60.349 105.288 62.5573C101.609 60.4257 98.1965 56.537 95.4571 51.371C100.773 50.633 106.349 49.2535 112.097 47.2042C117.664 49.2166 123.336 50.6245 128.712 51.3682C125.976 56.5313 122.563 60.4257 118.881 62.58ZM154.14 42.515C151.028 47.3886 143.433 49.6793 133.233 48.9924C135.183 44.4736 136.692 39.3133 137.616 33.8294C142.368 30.4119 146.535 26.6623 149.876 22.8701C155.649 30.5481 157.246 37.6471 154.14 42.515ZM159.876 -2.07704C159.876 -0.271788 158.611 1.32058 156.698 1.89111C153.724 2.83631 150.577 0.68477 150.577 -2.07704C150.577 -3.31745 151.156 -4.47554 152.177 -5.2703C153.022 -5.94869 154.071 -6.30634 155.214 -6.30634C157.784 -6.30634 159.876 -4.41025 159.876 -2.07704ZM148.746 -5.94585C147.925 -4.81331 147.446 -3.48208 147.446 -2.07704C147.446 1.80596 150.928 4.96232 155.211 4.96232C155.355 4.96232 155.502 4.93677 155.649 4.92825C155.427 8.85667 153.423 13.4379 149.892 18.1271C146.56 14.3462 142.387 10.5853 137.619 7.13089C136.689 1.61578 135.202 -3.45086 133.223 -8.00657C139.569 -8.43801 144.87 -7.73976 148.746 -5.94585ZM112.1 -29.1559C114.655 -29.1559 116.734 -27.2711 116.734 -24.955C116.734 -24.6314 116.69 -24.3305 116.583 -23.9643C116.114 -22.0881 114.226 -20.7257 112.097 -20.7257C109.943 -20.7257 108.083 -22.0512 107.57 -23.9842C107.479 -24.2964 107.435 -24.62 107.435 -24.955C107.435 -27.2711 109.53 -29.1559 112.1 -29.1559ZM105.291 -21.5744C106.628 -19.3462 109.189 -17.8872 112.1 -17.8872C114.984 -17.8872 117.579 -19.3888 118.894 -21.5942C122.576 -19.437 125.979 -15.5398 128.709 -10.3738C123.408 -9.65855 117.842 -8.28474 112.097 -6.22686C106.321 -8.28474 100.748 -9.65855 95.4602 -10.3738C98.1996 -15.5313 101.609 -19.4228 105.291 -21.5744ZM90.9331 -7.9867C88.9639 -3.43666 87.4799 1.62146 86.5501 7.15076C81.8039 10.5654 77.64 14.315 74.2932 18.1072C74.1241 17.8829 73.9551 17.6615 73.7923 17.4373C73.8455 17.3947 73.8862 17.3436 73.9394 17.2982C74.0991 17.1705 74.2306 17.0286 74.3746 16.8895C74.6845 16.6 74.9632 16.2934 75.2105 15.9613C75.3357 15.791 75.4547 15.6207 75.5643 15.4419C75.7803 15.0871 75.9525 14.7181 76.0996 14.3349C76.1654 14.1617 76.2468 13.9971 76.2969 13.8183C76.4597 13.2506 76.5661 12.6659 76.5661 12.0584C76.5661 11.5646 76.5066 11.082 76.4002 10.6137C76.3877 10.5626 76.3626 10.5172 76.3501 10.4661C75.7678 8.18679 73.9739 6.33613 71.6133 5.49027C71.5945 5.48459 71.5757 5.48175 71.56 5.47608C71.1123 5.31996 70.649 5.19507 70.1637 5.11559C70.0072 5.09004 69.8444 5.09005 69.6878 5.07301C69.3842 5.03895 69.0867 4.98786 68.7737 4.98786C68.7298 4.98786 68.6954 5.00205 68.6547 5.00205C68.6171 5.00205 68.5796 4.99354 68.5389 4.99354C68.5295 4.84878 68.5044 4.6955 68.5013 4.55074C68.4919 4.28676 68.495 4.02847 68.5044 3.77017C68.5169 3.36711 68.5483 2.9754 68.5983 2.58937C68.6297 2.34242 68.661 2.09548 68.7111 1.85705C68.7925 1.45683 68.9052 1.07364 69.0304 0.693285C69.0961 0.494593 69.1462 0.290223 69.2245 0.097208C69.4499 -0.461967 69.7098 -1.00127 70.0354 -1.51219C73.1442 -6.38014 80.7112 -8.68212 90.9331 -7.9867ZM67.5527 7.97107C67.9033 7.87741 68.3103 7.82915 68.7705 7.82915C71.3409 7.82915 73.4354 9.72524 73.4354 12.0584C73.4354 13.6309 72.4648 15.0615 70.8963 15.7939C70.2389 16.1032 69.525 16.2593 68.7674 16.2593C66.2127 16.2593 64.1339 14.3746 64.1339 12.0584C64.137 10.1567 65.5302 8.47916 67.5527 7.97107Z" fill="#EBFEC2"/>
<path d="M112.5 34C121.047 34 128 27.9417 128 20.5C128 13.0583 121.047 7 112.5 7C103.953 7 97 13.0555 97 20.5C97 27.9445 103.953 34 112.5 34ZM112.5 9.74227C119.308 9.74227 124.848 14.568 124.848 20.4973C124.848 26.4292 119.308 31.2522 112.5 31.2522C105.692 31.2522 100.152 26.4265 100.152 20.4973C100.152 14.568 105.692 9.74227 112.5 9.74227Z" fill="#EBFEC2"/>
<rect x="452.5" y="94.5" width="1015" height="175" rx="87.5" stroke="#EBFEC2" stroke-width="9"/>
<path d="M564.995 213V162.702H575.499V183.407H583.579L598.729 162.702H611.253L592.568 186.841L613.071 213H599.941L584.084 192.194H575.499V213H564.995ZM635.081 207.546L614.174 162.702H625.89L640.03 196.84L653.968 162.702H664.472L633.263 232.19H622.456L635.081 207.546ZM716.28 162.702V213H705.776V171.287H681.233V213H670.729V162.702H716.28ZM729.81 213V162.702H740.314V194.82L772.836 162.702H776.573V213H766.069V180.882L733.547 213H729.81ZM828.859 162.702V171.287H812.598V213H802.094V171.287H785.833V162.702H828.859ZM838.109 213V162.702H848.613V180.781C852.148 179.973 856.188 179.569 860.127 179.569C873.055 179.569 881.135 185.73 881.135 196.335C881.135 206.334 874.267 213 862.854 213H838.109ZM848.613 188.659V205.021H861.036C868.005 205.021 870.429 201.284 870.429 196.133C870.429 189.063 865.076 187.447 859.117 187.447C855.481 187.447 851.542 187.952 848.613 188.659ZM964.933 162.702V213H954.429V171.287H929.886V213H919.382V162.702H964.933ZM1002.3 214.717C984.221 214.515 975.535 202.193 975.535 188.154C975.535 172.701 985.534 160.985 1002.3 160.985C1020.38 161.187 1029.06 173.509 1029.06 187.548C1029.06 203.001 1019.07 214.717 1002.3 214.717ZM1002.3 206.031C1014.42 206.031 1018.26 196.537 1018.26 188.356C1018.26 178.963 1013.61 169.671 1002.3 169.671C990.18 169.671 986.342 179.165 986.342 187.346C986.342 196.739 990.988 206.031 1002.3 206.031ZM1048.68 204.314H1073.52V171.287H1054.54V174.519C1054.54 183.306 1053.32 194.719 1048.68 204.314ZM1082.51 213H1041.91V224.918H1033.02V204.314H1038.98C1044.23 193.406 1045.04 178.559 1045.04 165.227V162.702H1083.52V204.314H1091.4V224.918H1082.51V213ZM1147.8 162.702V213H1137.29V171.287H1112.75V213H1102.25V162.702H1147.8ZM1161.33 213V162.702H1171.83V194.82L1204.35 162.702H1208.09V213H1197.59V180.882L1165.07 213H1161.33ZM1259.17 163.207V171.893C1255.83 170.782 1251.19 169.873 1247.05 169.873C1235.63 169.873 1229.47 175.933 1229.47 187.75C1229.47 199.567 1236.64 205.728 1246.74 205.728C1251.39 205.728 1256.14 204.819 1259.77 203.203V211.99C1255.02 214.01 1249.37 214.717 1245.33 214.717C1230.18 214.717 1218.66 204.819 1218.66 188.154C1218.66 171.691 1229.17 160.985 1245.83 160.985C1249.37 160.985 1255.02 161.591 1259.17 163.207ZM1270.12 213V162.702H1280.62V183.407H1288.7L1303.85 162.702H1316.38L1297.69 186.841L1318.2 213H1305.07L1289.21 192.194H1280.62V213H1270.12ZM1340.21 207.546L1319.3 162.702H1331.02L1345.16 196.84L1359.09 162.702H1369.6L1338.39 232.19H1327.58L1340.21 207.546Z" fill="#EBFEC2"/>
</g>
<defs>
<clipPath id="clip0_1030_7">
<rect width="1920" height="363" fill="white"/>
</clipPath>
</defs>
</svg>
