<svg width="30" height="32" viewBox="0 0 30 32" fill="none" xmlns="http://www.w3.org/2000/svg">
<path d="M22 7V3.4918C22 2.38723 21.1046 1.4918 20 1.4918H3.04255M22 17V24.082C22 25.1865 21.1046 26.082 20 26.082H17.4043M1.89362 2.96721C1.89362 12.3828 1.89362 21.979 1.89362 25.5804C1.89362 26.4651 2.4749 27.2387 3.32283 27.4912L13.821 30.6172C14.4622 30.8082 15.1064 30.3278 15.1064 29.6588V5.68005C15.1064 5.23768 14.8157 4.84788 14.3918 4.72163L3.77902 1.56142C2.83853 1.28137 1.89362 1.98592 1.89362 2.96721V2.96721Z" stroke="#006CDC" stroke-width="2" stroke-linecap="round"/>
<path d="M18 12H29M29 12C29 11 24.6 9 24.6 9M29 12C29 13 24.6 15 24.6 15" stroke="#006CDC" stroke-width="2" stroke-linecap="round"/>
</svg>
