<svg width="31" height="32" viewBox="0 0 31 32" fill="none" xmlns="http://www.w3.org/2000/svg">
<path d="M9.89355 7V3.4918C9.89355 2.38723 10.789 1.4918 11.8936 1.4918H28.851M9.89355 17V24.082C9.89355 25.1865 10.789 26.082 11.8936 26.082H14.4893M29.9999 2.96721C29.9999 12.3828 29.9999 21.979 29.9999 25.5804C29.9999 26.4651 29.4187 27.2387 28.5707 27.4912L18.0726 30.6172C17.4314 30.8082 16.7872 30.3278 16.7872 29.6588V5.68005C16.7872 5.23768 17.0778 4.84788 17.5018 4.72163L28.1145 1.56142C29.055 1.28137 29.9999 1.98592 29.9999 2.96721V2.96721Z" stroke="#006CDC" stroke-width="2" stroke-linecap="round"/>
<path d="M1 12H12M12 12C12 11 7.6 9 7.6 9M12 12C12 13 7.6 15 7.6 15" stroke="#006CDC" stroke-width="2" stroke-linecap="round"/>
</svg>
