<svg width="553" height="448" viewBox="0 0 553 448" fill="none" xmlns="http://www.w3.org/2000/svg">
<path d="M434.617 7H28.3808C16.5717 7 7 15.7022 7 26.4363V330.564C7 341.299 16.5717 350 28.3808 350H303.132C314.006 350 319.599 336.986 312.115 329.097V329.097C309.777 326.632 306.529 325.236 303.132 325.236H267.896C259.307 325.236 252.345 318.274 252.345 309.685V303.199C252.345 298.193 256.403 294.135 261.409 294.135H281.424C281.546 294.135 281.611 293.99 281.529 293.9V293.9C279.193 291.475 277.102 289.026 275.259 286.568C268.679 277.792 259.196 270.335 248.227 270.335H83.3139C69.5068 270.335 58.3139 259.143 58.3139 245.335V111.663C58.3139 97.8554 69.5068 86.6625 83.3139 86.6625H379.683C393.49 86.6625 404.683 97.8554 404.683 111.663V256.961C404.683 264.347 398.695 270.335 391.308 270.335H379.074C371.492 270.335 368.185 279.875 373.765 285.009V285.009C376.876 287.871 381.235 287.572 384.538 284.934C387.469 282.593 390.651 280.17 394.049 277.746C413.609 263.786 432.636 255.249 450.6 252.373V252.373C453.651 251.887 456 249.339 456 246.25V26.4363C455.998 15.7022 446.426 7 434.617 7ZM156.132 309.684C156.132 301.097 163.093 294.135 171.681 294.135H195.103C203.691 294.135 210.653 301.097 210.653 309.684V309.684C210.653 318.272 203.691 325.234 195.103 325.234H171.681C163.093 325.234 156.132 318.272 156.132 309.684V309.684ZM59.9169 309.684C59.9169 301.097 66.8786 294.135 75.4664 294.135H98.8895C107.477 294.135 114.439 301.097 114.439 309.684V309.684C114.439 318.272 107.477 325.234 98.8895 325.234H75.4664C66.8786 325.234 59.9169 318.272 59.9169 309.684V309.684ZM114.439 47.313C114.439 55.9005 107.477 62.862 98.89 62.862H75.4659C66.8784 62.862 59.9169 55.9005 59.9169 47.313V47.313C59.9169 38.7255 66.8784 31.7639 75.4659 31.7639H98.89C107.478 31.7639 114.439 38.7255 114.439 47.313V47.313ZM210.653 47.313C210.653 55.9005 203.691 62.862 195.104 62.862H171.681C163.093 62.862 156.132 55.9005 156.132 47.313V47.313C156.132 38.7255 163.093 31.7639 171.681 31.7639H195.104C203.691 31.7639 210.653 38.7255 210.653 47.313V47.313ZM306.866 47.313C306.866 55.9005 299.905 62.862 291.317 62.862H267.894C259.307 62.862 252.345 55.9005 252.345 47.313V47.313C252.345 38.7255 259.307 31.7639 267.894 31.7639H291.317C299.905 31.7639 306.866 38.7255 306.866 47.313V47.313ZM403.08 47.313C403.08 55.9005 396.118 62.862 387.531 62.862H364.108C355.52 62.862 348.559 55.9005 348.559 47.313V47.313C348.559 38.7255 355.52 31.7639 364.108 31.7639H387.531C396.118 31.7639 403.08 38.7255 403.08 47.313V47.313Z" stroke="black" stroke-width="13"/>
<path d="M544.453 351.283C539.14 325.242 520.917 301.167 510.526 289.13C496.431 272.8 478.54 266.242 457.354 269.637C442.225 272.061 425.783 279.552 408.482 291.904C405.248 294.214 402.224 296.524 399.449 298.747C389.598 306.642 375.603 307.438 366.296 298.908C353.984 287.623 338.985 273.117 329.973 263.418C322.91 255.817 304.694 239.65 291.102 250.809C276.472 263.744 297.902 284.873 298.457 285.486L383.347 379.987C383.971 380.682 384.011 381.761 383.252 382.305V382.305C375.005 388.195 350.945 377.374 341.232 371.533C332.353 366.196 317.405 366.237 309.857 371.623C306.837 373.782 305.163 376.715 305.146 379.882C305.121 384.443 308.4 389.156 314.883 393.88C314.956 393.934 315.088 394.037 315.275 394.184C324.855 401.649 350.843 420.242 385.159 431.688C407.158 439.026 428.59 442.049 448.869 440.679C474.02 438.975 497.455 430.487 518.524 415.444C541.122 399.299 549.846 377.712 544.453 351.283Z" stroke="#7BBAF4" stroke-width="13"/>
<path d="M221.06 130.842C218.512 128.872 214.957 128.445 211.941 129.741C208.927 131.036 207 133.824 207 136.89V220.111C207 223.178 208.926 225.965 211.941 227.26C213.097 227.758 214.333 228 215.56 228C217.534 228 219.488 227.37 221.06 226.157L274.937 184.547C276.879 183.047 278 180.832 278 178.499C278 176.165 276.879 173.95 274.937 172.451L221.06 130.842Z" stroke="#7BBAF4" stroke-width="13"/>
</svg>
